<?xml version="1.0" encoding="utf-8"?>
<!-- Generator: Adobe Illustrator 18.0.0, SVG Export Plug-In . SVG Version: 6.00 Build 0)  -->
<!DOCTYPE svg PUBLIC "-//W3C//DTD SVG 1.1//EN" "http://www.w3.org/Graphics/SVG/1.1/DTD/svg11.dtd">
<svg version="1.1" id="Layer_1" xmlns="http://www.w3.org/2000/svg" xmlns:xlink="http://www.w3.org/1999/xlink" x="0px" y="0px"
	 viewBox="0 0 118 55" enable-background="new 0 0 118 55" xml:space="preserve">
<g>
	<path fill="#CEDD38" d="M92.9,42.6c-0.8,0-1.5-0.1-2.3-0.2l-0.2,0l1.9-10.5c0.1-0.4,0.1-0.8,0.1-1.2c0-0.6-0.1-1-0.3-1.2
		c-0.2-0.2-0.6-0.3-1-0.3c-0.3,0-0.6,0.1-0.9,0.2c-0.3,0.1-0.7,0.4-1,0.9c-0.4,0.5-0.7,1.1-1.1,2c-0.4,0.9-0.7,2-0.9,3.4l-1.2,6.6
		l-0.2,0c-0.8,0.1-1.6,0.2-2.4,0.2c-0.8,0-1.5-0.1-2.3-0.2l-0.2,0l1.8-9.7c0.2-1.3,0.4-2.5,0.5-3.6c0.1-1.1,0.2-1.8,0.2-2.4V26
		c0-0.2,0-0.3,0-0.5l0-0.2l0.2,0c0.7-0.1,1.5-0.2,2.2-0.2c0.3,0,0.7,0,1,0.1c0.3,0,0.7,0.1,1,0.1l0.2,0l0,0.2c0,0.2,0.1,0.4,0.1,0.6
		c0,0.3,0.1,0.6,0.1,1.1c0,0.1,0,0.2,0,0.3c0.1-0.2,0.3-0.3,0.4-0.5c0.4-0.4,0.9-0.8,1.4-1.1c0.5-0.3,1.1-0.6,1.7-0.7
		c0.6-0.2,1.2-0.3,1.8-0.3c1.3,0,2.4,0.4,3.2,1c0.8,0.7,1.2,1.9,1.2,3.5c0,0.3,0,0.7-0.1,1.1c0,0.4-0.1,0.8-0.2,1.2l-1.9,10.7
		l-0.2,0C94.5,42.5,93.7,42.6,92.9,42.6z"/>
	<path fill="#2C2A6B" d="M93.2,25.2c1.3,0,2.3,0.3,3,1c0.7,0.7,1.1,1.7,1.1,3.3c0,0.3,0,0.7-0.1,1c0,0.4-0.1,0.8-0.2,1.2l-1.9,10.6
		c-0.8,0.1-1.6,0.2-2.4,0.2c-0.7,0-1.5-0.1-2.2-0.2l1.8-10.2c0.1-0.4,0.1-0.8,0.1-1.2c0-0.6-0.1-1.1-0.4-1.4
		C91.9,29.1,91.5,29,91,29c-0.3,0-0.6,0.1-1,0.2c-0.4,0.1-0.8,0.5-1.1,0.9c-0.4,0.5-0.8,1.2-1.1,2c-0.4,0.9-0.7,2-0.9,3.5l-1.2,6.5
		c-0.8,0.1-1.6,0.2-2.3,0.2c-0.8,0-1.5-0.1-2.2-0.2l1.7-9.5c0.2-1.4,0.4-2.5,0.5-3.6c0.1-1,0.2-1.9,0.2-2.4c0-0.2,0-0.4,0-0.6
		c0-0.2,0-0.3,0-0.5c0.7-0.1,1.4-0.2,2.1-0.2c0.3,0,0.6,0,1,0c0.3,0,0.7,0.1,1,0.1c0,0.2,0.1,0.4,0.1,0.6c0,0.2,0.1,0.6,0.1,1.1
		c0,0.2,0,0.4,0,0.6c0,0.2,0,0.4-0.1,0.7c0.3-0.5,0.6-0.9,1-1.3c0.4-0.4,0.8-0.8,1.3-1.1c0.5-0.3,1-0.5,1.6-0.7
		C92.1,25.2,92.7,25.2,93.2,25.2 M93.2,24.7c-0.6,0-1.2,0.1-1.9,0.3c-0.6,0.2-1.2,0.4-1.7,0.8c-0.5,0.3-1,0.7-1.4,1.1c0,0,0,0,0,0
		c0-0.3,0-0.6-0.1-0.8c0-0.3-0.1-0.5-0.1-0.6L88,25.1L87.6,25c-0.4-0.1-0.7-0.1-1.1-0.1c-0.3,0-0.7-0.1-1-0.1
		c-0.7,0-1.5,0.1-2.2,0.2l-0.5,0.1l0.1,0.5c0,0.2,0,0.3,0,0.5v0.6c0,0.5-0.1,1.3-0.2,2.4c-0.1,1-0.3,2.2-0.5,3.6l-1.7,9.5l-0.1,0.5
		l0.5,0.1c0.7,0.1,1.5,0.2,2.3,0.2c0.8,0,1.6-0.1,2.4-0.2l0.4-0.1l0.1-0.3l1.2-6.5c0.3-1.4,0.6-2.5,0.9-3.4c0.3-0.8,0.7-1.5,1.1-1.9
		c0.3-0.4,0.6-0.7,0.9-0.8c0.3-0.1,0.6-0.2,0.8-0.2c0.4,0,0.7,0.1,0.8,0.3c0.2,0.2,0.3,0.5,0.3,1c0,0.4,0,0.7-0.1,1.1l-1.8,10.2
		l-0.1,0.5l0.5,0.1c0.8,0.1,1.5,0.2,2.3,0.2c0.8,0,1.6-0.1,2.4-0.2l0.4-0.1l0.1-0.4l1.9-10.6c0.1-0.4,0.1-0.8,0.2-1.2
		c0-0.4,0.1-0.7,0.1-1.1c0-1.7-0.4-2.9-1.2-3.6C95.8,25,94.7,24.7,93.2,24.7L93.2,24.7z"/>
</g>
<g>
	<path fill="#CEDD38" d="M77.1,42.6c-0.7,0-1.4-0.1-2.2-0.2l-0.2,0L77,29.2h-2V29c0-0.1,0-0.1,0-0.2c0-0.1,0-0.2,0-0.3
		c0-0.6,0.1-1.1,0.2-1.6c0.1-0.5,0.3-1,0.5-1.5l0.1-0.2h7l-3,17.1l-0.2,0C78.7,42.5,77.9,42.6,77.1,42.6z M80.5,23.1
		c-0.3,0-0.7,0-1.1,0c-0.4,0-0.8-0.1-1.2-0.1l-0.2,0l0-0.2c0-0.8,0-1.5,0.2-2.2c0.1-0.7,0.3-1.4,0.6-2.2l0-0.1l0.1,0
		c0.4-0.1,0.8-0.1,1.3-0.2c0.4,0,0.8-0.1,1.2-0.1c0.3,0,0.7,0,1.2,0.1c0.4,0,0.8,0.1,1.2,0.2l0.2,0v0.2c0,0.8-0.1,1.5-0.2,2.2
		c-0.1,0.7-0.3,1.4-0.6,2.2l0,0.1l-0.1,0c-0.4,0.1-0.8,0.1-1.2,0.1C81.2,23.1,80.9,23.1,80.5,23.1z"/>
	<path fill="#2C2A6B" d="M81.3,18.2c0.3,0,0.7,0,1.1,0c0.4,0,0.8,0.1,1.2,0.2c0,0.8-0.1,1.5-0.2,2.2c-0.1,0.7-0.3,1.4-0.6,2.1
		c-0.4,0.1-0.8,0.1-1.2,0.1s-0.8,0-1.1,0c-0.3,0-0.7,0-1.1,0c-0.4,0-0.8-0.1-1.2-0.1c0-0.8,0-1.5,0.1-2.1c0.1-0.7,0.3-1.4,0.6-2.1
		c0.4-0.1,0.8-0.1,1.2-0.2C80.6,18.2,81,18.2,81.3,18.2 M82.4,25.5l-2.9,16.6c-0.8,0.1-1.6,0.2-2.3,0.2c-0.7,0-1.4-0.1-2.2-0.2
		L77.3,29h-2c0-0.1,0-0.1,0-0.2c0-0.1,0-0.1,0-0.2c0-0.6,0.1-1.1,0.2-1.6c0.1-0.5,0.3-1,0.5-1.5H82.4 M81.3,17.7
		c-0.3,0-0.7,0-1.2,0.1c-0.4,0-0.9,0.1-1.3,0.2L78.5,18l-0.1,0.3c-0.3,0.8-0.5,1.5-0.6,2.2c-0.1,0.7-0.2,1.4-0.2,2.2l0,0.4l0.4,0.1
		c0.4,0.1,0.8,0.1,1.2,0.1c0.4,0,0.8,0,1.2,0c0.4,0,0.7,0,1.2,0c0.4,0,0.8-0.1,1.3-0.1l0.3,0l0.1-0.3c0.3-0.8,0.5-1.5,0.6-2.2
		c0.1-0.7,0.2-1.5,0.2-2.3V18l-0.4-0.1c-0.4-0.1-0.8-0.2-1.2-0.2C82,17.7,81.6,17.7,81.3,17.7L81.3,17.7z M83,25h-0.6h-6.5h-0.3
		l-0.1,0.3c-0.2,0.5-0.4,1.1-0.5,1.6c-0.1,0.5-0.2,1.1-0.2,1.7c0,0.1,0,0.2,0,0.3c0,0,0,0.1,0,0.1v0.5h0.5h1.4l-2.2,12.6l-0.1,0.5
		l0.5,0.1c0.8,0.1,1.5,0.2,2.2,0.2c0.8,0,1.6-0.1,2.4-0.2l0.4-0.1l0.1-0.4l2.9-16.6L83,25L83,25z"/>
</g>
<path fill="#CEDD38" d="M35.5,35.8c0.1,1,0.5,1.8,1,2.3c0.6,0.5,1.4,0.8,2.4,0.8c0.9,0,1.6-0.1,2.3-0.3c0.7-0.2,1.3-0.4,2.1-0.7
	c0.3,0.4,0.6,0.9,0.7,1.6c0.1,0.6,0.2,1.3,0.2,1.9c-0.4,0.2-0.8,0.3-1.3,0.5c-0.5,0.1-1,0.3-1.5,0.4c-0.5,0.1-1,0.2-1.5,0.2
	c-0.5,0.1-1,0.1-1.4,0.1c-1.3,0-2.4-0.2-3.4-0.5c-0.9-0.3-1.7-0.8-2.3-1.4c-0.6-0.6-1.1-1.3-1.4-2.2c-0.3-0.8-0.4-1.8-0.4-2.8
	c0-1.3,0.2-2.6,0.7-3.9c0.5-1.3,1.1-2.4,1.9-3.4c0.8-1,1.8-1.8,3-2.4c1.2-0.6,2.5-0.9,4-0.9c0.7,0,1.4,0.1,2,0.3
	c0.6,0.2,1.1,0.4,1.6,0.8c0.5,0.4,0.8,0.8,1.1,1.3c0.3,0.5,0.4,1.1,0.4,1.8c0,1-0.2,1.8-0.7,2.5c-0.5,0.7-1.1,1.3-1.8,1.8
	c-0.8,0.5-1.6,0.9-2.6,1.2c-1,0.3-1.9,0.5-3,0.7L35.5,35.8z M37.3,32.6c0.8-0.1,1.5-0.3,2-0.5c0.5-0.2,0.9-0.4,1.2-0.7
	c0.3-0.2,0.5-0.5,0.6-0.8c0.1-0.3,0.2-0.5,0.2-0.8c0-0.4-0.1-0.7-0.4-1c-0.3-0.3-0.6-0.4-1.1-0.4c-0.6,0-1.1,0.1-1.5,0.4
	c-0.5,0.2-0.9,0.6-1.2,1c-0.3,0.4-0.6,0.9-0.9,1.4c-0.2,0.5-0.4,1.1-0.6,1.6L37.3,32.6z"/>
<path fill="#CEDD38" d="M49.9,35.8c0.1,1,0.5,1.8,1,2.3s1.4,0.8,2.4,0.8c0.9,0,1.6-0.1,2.3-0.3c0.7-0.2,1.3-0.4,2.1-0.7
	c0.3,0.4,0.6,0.9,0.7,1.6c0.1,0.6,0.2,1.3,0.2,1.9c-0.4,0.2-0.8,0.3-1.3,0.5c-0.5,0.1-1,0.3-1.5,0.4c-0.5,0.1-1,0.2-1.5,0.2
	c-0.5,0.1-1,0.1-1.4,0.1c-1.3,0-2.4-0.2-3.4-0.5c-0.9-0.3-1.7-0.8-2.3-1.4c-0.6-0.6-1.1-1.3-1.4-2.2c-0.3-0.8-0.4-1.8-0.4-2.8
	c0-1.3,0.2-2.6,0.7-3.9c0.5-1.3,1.1-2.4,1.9-3.4c0.8-1,1.8-1.8,3-2.4c1.2-0.6,2.5-0.9,4-0.9c0.7,0,1.4,0.1,2,0.3
	c0.6,0.2,1.1,0.4,1.6,0.8c0.5,0.4,0.8,0.8,1.1,1.3c0.3,0.5,0.4,1.1,0.4,1.8c0,1-0.2,1.8-0.7,2.5c-0.5,0.7-1.1,1.3-1.8,1.8
	c-0.8,0.5-1.6,0.9-2.6,1.2c-1,0.3-1.9,0.5-3,0.7L49.9,35.8z M51.8,32.6c0.8-0.1,1.5-0.3,2-0.5c0.5-0.2,0.9-0.4,1.2-0.7
	c0.3-0.2,0.5-0.5,0.6-0.8c0.1-0.3,0.2-0.5,0.2-0.8c0-0.4-0.1-0.7-0.4-1c-0.3-0.3-0.6-0.4-1.1-0.4c-0.6,0-1.1,0.1-1.5,0.4
	c-0.5,0.2-0.9,0.6-1.2,1c-0.3,0.4-0.6,0.9-0.9,1.4s-0.4,1.1-0.6,1.6L51.8,32.6z"/>
<path fill="#CEDD38" d="M58.6,41.8L68.1,29h-6.2c0-0.3,0-0.6,0-0.9c0-0.3,0.1-0.6,0.1-0.9c0-0.3,0.1-0.6,0.2-0.8
	c0.1-0.3,0.2-0.6,0.3-0.9h12.6l0.1,0.4l-9.6,12.7h7.2c0,0.3,0,0.6,0,0.9c0,0.3-0.1,0.6-0.1,0.9c0,0.3-0.1,0.6-0.2,0.8
	c-0.1,0.3-0.2,0.6-0.3,0.9H58.8L58.6,41.8z"/>
<g>
	<g>
		<g>
			<g>
				<g>
					<path fill="#CEDD38" d="M36.8,53.7c-5.9-0.1-11.6-2-17.5-5.6c0,0-0.1,0-0.1-0.1c0-0.7,0-1,0-1.7c0.2,0.1,0.2,0.1,0.4,0.2
						c5.8,3.5,11.4,5.4,17.2,5.5c7.2,0.1,13.8-2.7,20.1-5.4c6.4-2.8,13.1-5.6,20.4-5.5c5.9,0.1,11.6,2,17.5,5.5c0,0,0.1,0,0.1,0.1
						c0,0.7,0,1,0,1.7c-0.2-0.1-0.2-0.1-0.4-0.2c-5.8-3.5-11.4-5.4-17.2-5.5c-7.2-0.1-13.8,2.7-20.1,5.4
						C50.7,51,44.1,53.8,36.8,53.7L36.8,53.7z"/>
					<path fill="#28246C" d="M77.3,41.5c5.3,0.1,11,1.7,17.3,5.5c0,0.4,0,0.6,0,1.1c-6.3-3.8-12-5.4-17.3-5.5
						c-14.5,0.4-26,10.5-40.5,10.9c-5.3-0.1-11-1.7-17.3-5.5c0-0.4,0-0.6,0-1.1c6.4,3.8,12,5.5,17.3,5.5
						C51.3,52,62.8,41.9,77.3,41.5 M77.3,41c-7.4-0.1-14,2.7-20.5,5.5c-6.3,2.7-12.9,5.5-20,5.4c-5.7-0.1-11.3-2-17-5.5
						c-0.3-0.2-0.5-0.3-0.8-0.5c0,0.4,0,0.6,0,1c0,0.4,0,0.6,0,1.1c0,0.1,0,0.1,0,0.2c0.1,0,0.1,0.1,0.2,0.1
						c5.9,3.6,11.7,5.5,17.6,5.6c7.4,0.1,14-2.7,20.5-5.5c6.3-2.7,12.9-5.5,20-5.4c5.7,0.1,11.3,2,17,5.5c0.3,0.2,0.5,0.3,0.8,0.5
						c0-0.4,0-0.6,0-1c0-0.4,0-0.6,0-1.1c0-0.1,0-0.1,0-0.2c-0.1,0-0.1-0.1-0.2-0.1C89,43,83.2,41.1,77.3,41L77.3,41z"/>
				</g>
			</g>
		</g>
	</g>
</g>
<path fill="#CEDD38" stroke="#2C2A6B" stroke-width="0.5" stroke-miterlimit="10" d="M95.7,48.6l-1.5-0.2c-0.1,0-0.2-0.1-0.2-0.3
	l0.2-1.5c0-0.1,0.1-0.2,0.3-0.2l1.5,0.2c0.1,0,0.2,0.1,0.2,0.3L96,48.4C96,48.5,95.9,48.6,95.7,48.6z"/>
<path fill="#CEDD38" stroke="#2C2A6B" stroke-width="0.5" stroke-miterlimit="10" d="M106.7,39c-0.6,1-1.4,1.8-2.4,2.5
	c-1,0.7-2.1,1-3.4,1c-1.4,0-2.5-0.5-3.2-1.4c-0.7-0.9-1.1-2.1-1.1-3.6c0-1.6,0.2-3.2,0.7-4.7c0.5-1.5,1.2-2.8,2.2-4
	c1-1.2,2.1-2.1,3.6-2.8c1.4-0.7,3.1-1,5-1c1.9,0,3.6,0.2,5.2,0.7l-2.8,15.9c-0.3,1.7-0.8,3.1-1.6,4.2c-0.8,1.1-1.6,1.9-2.7,2.5
	c-1,0.6-2.1,1-3.2,1.2s-2.2,0.3-3.3,0.3c-1.1,0-1.9-0.1-2.7-0.2c-0.7-0.1-1.3-0.3-1.7-0.4c0-0.4,0-0.7,0.1-1c0-0.3,0.1-0.6,0.1-0.9
	c0.1-0.3,0.1-0.6,0.3-0.8c0.1-0.3,0.3-0.6,0.5-0.9c0.3,0.1,0.8,0.2,1.4,0.3c0.6,0.1,1.2,0.1,1.9,0.1c0.6,0,1.2,0,1.9-0.1
	s1.3-0.3,1.9-0.7c0.6-0.3,1.2-0.9,1.7-1.5c0.5-0.7,0.9-1.6,1.2-2.8L106.7,39z M108.2,28.9c-0.2,0-0.4-0.1-0.6-0.1
	c-0.2,0-0.4,0-0.5,0c-1,0-1.9,0.3-2.6,0.8c-0.7,0.5-1.3,1.2-1.8,1.9c-0.5,0.8-0.8,1.6-1,2.5c-0.2,0.9-0.3,1.7-0.3,2.4
	c0,0.8,0.1,1.4,0.4,1.8c0.3,0.4,0.7,0.6,1.2,0.6c1,0,2-0.6,2.9-1.9c0.9-1.3,1.5-3,1.9-5.3L108.2,28.9z"/>
<path fill="#CEDD38" stroke="#2C2A6B" stroke-width="0.5" stroke-miterlimit="10" d="M37.6,3.8C35.4,3,33,4.1,32.2,6.3
	c-0.5,1.4-0.2,3,0.6,4.1L22.5,40.2L12.2,12.7c0.5-1.3,0.3-2.9-0.6-4.1c-1.4-1.8-4.1-2.1-5.9-0.7C3.9,9.4,3.6,12,5,13.9
	c1,1.2,2.4,1.7,3.8,1.5l9.3,25.9c-5.6,1.3-9.8,4.8-9.8,8.7l29.2,0c0-4.2-4.4-8-10.7-9l10-29.2c1.4-0.3,2.6-1.2,3.2-2.6
	C40.9,7.1,39.8,4.6,37.6,3.8z"/>
</svg>
