<?xml version="1.0" encoding="utf-8"?>
<!-- Generator: Adobe Illustrator 18.0.0, SVG Export Plug-In . SVG Version: 6.00 Build 0)  -->
<!DOCTYPE svg PUBLIC "-//W3C//DTD SVG 1.1//EN" "http://www.w3.org/Graphics/SVG/1.1/DTD/svg11.dtd">
<svg version="1.1" id="Layer_1" xmlns="http://www.w3.org/2000/svg" xmlns:xlink="http://www.w3.org/1999/xlink" x="0px" y="0px"
	 viewBox="0 0 110 51.2" enable-background="new 0 0 110 51.2" xml:space="preserve">
<g>
	<path fill="#CEDD38" d="M89.2,39.6c-0.8,0-1.5-0.1-2.3-0.2l-0.2,0l1.9-10.5c0.1-0.4,0.1-0.8,0.1-1.2c0-0.6-0.1-1-0.3-1.2
		c-0.2-0.2-0.6-0.3-1-0.3c-0.3,0-0.6,0.1-0.9,0.2c-0.3,0.1-0.7,0.4-1,0.9c-0.4,0.5-0.7,1.1-1.1,2c-0.4,0.9-0.7,2-0.9,3.4l-1.2,6.6
		l-0.2,0c-0.8,0.1-1.6,0.2-2.4,0.2c-0.8,0-1.5-0.1-2.3-0.2l-0.2,0l1.8-9.7c0.2-1.3,0.4-2.5,0.5-3.6c0.1-1.1,0.2-1.8,0.2-2.4V23
		c0-0.2,0-0.3,0-0.5l0-0.2l0.2,0c0.7-0.1,1.5-0.2,2.2-0.2c0.3,0,0.7,0,1,0.1c0.3,0,0.7,0.1,1,0.1l0.2,0l0,0.2c0,0.2,0.1,0.4,0.1,0.6
		c0,0.3,0.1,0.6,0.1,1.1c0,0.1,0,0.2,0,0.3c0.1-0.2,0.3-0.3,0.4-0.5c0.4-0.4,0.9-0.8,1.4-1.1c0.5-0.3,1.1-0.6,1.7-0.7
		c0.6-0.2,1.2-0.3,1.8-0.3c1.3,0,2.4,0.4,3.2,1c0.8,0.7,1.2,1.9,1.2,3.5c0,0.3,0,0.7-0.1,1.1c0,0.4-0.1,0.8-0.2,1.2l-1.9,10.7
		l-0.2,0C90.8,39.5,90,39.6,89.2,39.6z"/>
	<path fill="#007A9E" d="M89.6,22.2c1.3,0,2.3,0.3,3,1c0.7,0.7,1.1,1.7,1.1,3.3c0,0.3,0,0.7-0.1,1c0,0.4-0.1,0.8-0.2,1.2l-1.9,10.6
		c-0.8,0.1-1.6,0.2-2.4,0.2c-0.7,0-1.5-0.1-2.2-0.2l1.8-10.2c0.1-0.4,0.1-0.8,0.1-1.2c0-0.6-0.1-1.1-0.4-1.4
		c-0.3-0.3-0.7-0.4-1.2-0.4c-0.3,0-0.6,0.1-1,0.2c-0.4,0.1-0.8,0.5-1.1,0.9c-0.4,0.5-0.8,1.2-1.1,2c-0.4,0.9-0.7,2-0.9,3.5l-1.2,6.5
		c-0.8,0.1-1.6,0.2-2.3,0.2c-0.8,0-1.5-0.1-2.2-0.2l1.7-9.5c0.2-1.4,0.4-2.5,0.5-3.6c0.1-1,0.2-1.9,0.2-2.4c0-0.2,0-0.4,0-0.6
		c0-0.2,0-0.3,0-0.5c0.7-0.1,1.4-0.2,2.1-0.2c0.3,0,0.6,0,1,0c0.3,0,0.7,0.1,1,0.1c0,0.2,0.1,0.4,0.1,0.6c0,0.2,0.1,0.6,0.1,1.1
		c0,0.2,0,0.4,0,0.6c0,0.2,0,0.4-0.1,0.7c0.3-0.5,0.6-0.9,1-1.3c0.4-0.4,0.8-0.8,1.3-1.1c0.5-0.3,1-0.5,1.6-0.7
		C88.4,22.2,89,22.2,89.6,22.2 M89.6,21.7c-0.6,0-1.2,0.1-1.9,0.3c-0.6,0.2-1.2,0.4-1.7,0.8c-0.5,0.3-1,0.7-1.4,1.1c0,0,0,0,0,0
		c0-0.3,0-0.6-0.1-0.8c0-0.3-0.1-0.5-0.1-0.6l-0.1-0.3L84,22c-0.4-0.1-0.7-0.1-1.1-0.1c-0.3,0-0.7-0.1-1-0.1c-0.7,0-1.5,0.1-2.2,0.2
		l-0.5,0.1l0.1,0.5c0,0.2,0,0.3,0,0.5v0.6c0,0.5-0.1,1.3-0.2,2.4c-0.1,1-0.3,2.2-0.5,3.6l-1.7,9.5l-0.1,0.5l0.5,0.1
		c0.7,0.1,1.5,0.2,2.3,0.2c0.8,0,1.6-0.1,2.4-0.2l0.4-0.1l0.1-0.3l1.2-6.5c0.3-1.4,0.6-2.5,0.9-3.4c0.3-0.8,0.7-1.5,1.1-1.9
		c0.3-0.4,0.6-0.7,0.9-0.8c0.3-0.1,0.6-0.2,0.8-0.2c0.4,0,0.7,0.1,0.8,0.3c0.2,0.2,0.3,0.5,0.3,1c0,0.4,0,0.7-0.1,1.1l-1.8,10.2
		l-0.1,0.5l0.5,0.1c0.8,0.1,1.5,0.2,2.3,0.2c0.8,0,1.6-0.1,2.4-0.2l0.4-0.1l0.1-0.4l1.9-10.6c0.1-0.4,0.1-0.8,0.2-1.2
		c0-0.4,0.1-0.7,0.1-1.1c0-1.7-0.4-2.9-1.2-3.6C92.1,22,91,21.7,89.6,21.7L89.6,21.7z"/>
</g>
<g>
	<path fill="#CEDD38" d="M73.5,39.6c-0.7,0-1.4-0.1-2.2-0.2l-0.2,0l2.3-13.1h-2V26c0-0.1,0-0.1,0-0.2c0-0.1,0-0.2,0-0.3
		c0-0.6,0.1-1.1,0.2-1.6c0.1-0.5,0.3-1,0.5-1.5l0.1-0.2h7l-3,17.1l-0.2,0C75,39.5,74.2,39.6,73.5,39.6z M76.8,20.1
		c-0.3,0-0.7,0-1.1,0c-0.4,0-0.8-0.1-1.2-0.1l-0.2,0l0-0.2c0-0.8,0-1.5,0.2-2.2c0.1-0.7,0.3-1.4,0.6-2.2l0-0.1l0.1,0
		c0.4-0.1,0.8-0.1,1.3-0.2c0.4,0,0.8-0.1,1.2-0.1c0.3,0,0.7,0,1.2,0.1c0.4,0,0.8,0.1,1.2,0.2l0.2,0v0.2c0,0.8-0.1,1.5-0.2,2.2
		c-0.1,0.7-0.3,1.4-0.6,2.2l0,0.1l-0.1,0c-0.4,0.1-0.8,0.1-1.2,0.1C77.6,20.1,77.2,20.1,76.8,20.1z"/>
	<path fill="#007A9E" d="M77.6,15.2c0.3,0,0.7,0,1.1,0c0.4,0,0.8,0.1,1.2,0.2c0,0.8-0.1,1.5-0.2,2.2c-0.1,0.7-0.3,1.4-0.6,2.1
		c-0.4,0.1-0.8,0.1-1.2,0.1s-0.8,0-1.1,0c-0.3,0-0.7,0-1.1,0c-0.4,0-0.8-0.1-1.2-0.1c0-0.8,0-1.5,0.1-2.1c0.1-0.7,0.3-1.4,0.6-2.1
		c0.4-0.1,0.8-0.1,1.2-0.2C76.9,15.2,77.3,15.2,77.6,15.2 M78.7,22.5l-2.9,16.6c-0.8,0.1-1.6,0.2-2.3,0.2c-0.7,0-1.4-0.1-2.2-0.2
		L73.6,26h-2c0-0.1,0-0.1,0-0.2c0-0.1,0-0.1,0-0.2c0-0.6,0.1-1.1,0.2-1.6c0.1-0.5,0.3-1,0.5-1.5H78.7 M77.6,14.7
		c-0.3,0-0.7,0-1.2,0.1c-0.4,0-0.9,0.1-1.3,0.2L74.9,15l-0.1,0.3c-0.3,0.8-0.5,1.5-0.6,2.2c-0.1,0.7-0.2,1.4-0.2,2.2l0,0.4l0.4,0.1
		c0.4,0.1,0.8,0.1,1.2,0.1c0.4,0,0.8,0,1.2,0c0.4,0,0.7,0,1.2,0c0.4,0,0.8-0.1,1.3-0.1l0.3,0l0.1-0.3c0.3-0.8,0.5-1.5,0.6-2.2
		c0.1-0.7,0.2-1.5,0.2-2.3V15l-0.4-0.1c-0.4-0.1-0.8-0.2-1.3-0.2C78.4,14.7,78,14.7,77.6,14.7L77.6,14.7z M79.3,22h-0.6h-6.5h-0.3
		l-0.1,0.3c-0.2,0.5-0.4,1.1-0.5,1.6c-0.1,0.5-0.2,1.1-0.2,1.7c0,0.1,0,0.2,0,0.3c0,0,0,0.1,0,0.1v0.5h0.5H73l-2.2,12.6l-0.1,0.5
		l0.5,0.1c0.8,0.1,1.5,0.2,2.2,0.2c0.8,0,1.6-0.1,2.4-0.2l0.4-0.1l0.1-0.4l2.9-16.6L79.3,22L79.3,22z"/>
</g>
<path fill="#CEDD38" d="M31.8,32.8c0.1,1,0.5,1.8,1,2.3s1.4,0.8,2.4,0.8c0.9,0,1.6-0.1,2.3-0.3c0.7-0.2,1.3-0.4,2.1-0.7
	c0.3,0.4,0.6,0.9,0.7,1.6c0.1,0.6,0.2,1.3,0.2,1.9c-0.4,0.2-0.8,0.3-1.3,0.5c-0.5,0.1-1,0.3-1.5,0.4c-0.5,0.1-1,0.2-1.5,0.2
	c-0.5,0.1-1,0.1-1.4,0.1c-1.3,0-2.4-0.2-3.4-0.5c-0.9-0.3-1.7-0.8-2.3-1.4c-0.6-0.6-1.1-1.3-1.4-2.2c-0.3-0.8-0.4-1.8-0.4-2.8
	c0-1.3,0.2-2.6,0.7-3.9c0.5-1.3,1.1-2.4,1.9-3.4s1.8-1.8,3-2.4c1.2-0.6,2.5-0.9,4-0.9c0.7,0,1.4,0.1,2,0.3c0.6,0.2,1.1,0.4,1.6,0.8
	c0.5,0.4,0.8,0.8,1.1,1.3c0.3,0.5,0.4,1.1,0.4,1.8c0,1-0.2,1.8-0.7,2.5c-0.5,0.7-1.1,1.3-1.8,1.8c-0.8,0.5-1.6,0.9-2.6,1.2
	c-1,0.3-1.9,0.5-3,0.7L31.8,32.8z M33.6,29.6c0.8-0.1,1.5-0.3,2-0.5c0.5-0.2,0.9-0.4,1.2-0.7c0.3-0.2,0.5-0.5,0.6-0.8
	c0.1-0.3,0.2-0.5,0.2-0.8c0-0.4-0.1-0.7-0.4-1c-0.3-0.3-0.6-0.4-1.1-0.4c-0.6,0-1.1,0.1-1.5,0.4c-0.5,0.2-0.9,0.6-1.2,1
	c-0.3,0.4-0.6,0.9-0.9,1.4c-0.2,0.5-0.4,1.1-0.6,1.6L33.6,29.6z"/>
<path fill="#CEDD38" d="M46.3,32.8c0.1,1,0.5,1.8,1,2.3c0.6,0.5,1.4,0.8,2.4,0.8c0.9,0,1.6-0.1,2.3-0.3c0.7-0.2,1.3-0.4,2.1-0.7
	c0.3,0.4,0.6,0.9,0.7,1.6c0.1,0.6,0.2,1.3,0.2,1.9c-0.4,0.2-0.8,0.3-1.3,0.5c-0.5,0.1-1,0.3-1.5,0.4c-0.5,0.1-1,0.2-1.5,0.2
	c-0.5,0.1-1,0.1-1.4,0.1c-1.3,0-2.4-0.2-3.4-0.5c-0.9-0.3-1.7-0.8-2.3-1.4c-0.6-0.6-1.1-1.3-1.4-2.2c-0.3-0.8-0.4-1.8-0.4-2.8
	c0-1.3,0.2-2.6,0.7-3.9c0.5-1.3,1.1-2.4,1.9-3.4c0.8-1,1.8-1.8,3-2.4c1.2-0.6,2.5-0.9,4-0.9c0.7,0,1.4,0.1,2,0.3
	c0.6,0.2,1.1,0.4,1.6,0.8c0.5,0.4,0.8,0.8,1.1,1.3c0.3,0.5,0.4,1.1,0.4,1.8c0,1-0.2,1.8-0.7,2.5c-0.5,0.7-1.1,1.3-1.8,1.8
	c-0.8,0.5-1.6,0.9-2.6,1.2c-1,0.3-1.9,0.5-3,0.7L46.3,32.8z M48.1,29.6c0.8-0.1,1.5-0.3,2-0.5c0.5-0.2,0.9-0.4,1.2-0.7
	c0.3-0.2,0.5-0.5,0.6-0.8c0.1-0.3,0.2-0.5,0.2-0.8c0-0.4-0.1-0.7-0.4-1c-0.3-0.3-0.6-0.4-1.1-0.4c-0.6,0-1.1,0.1-1.5,0.4
	c-0.5,0.2-0.9,0.6-1.2,1c-0.3,0.4-0.6,0.9-0.9,1.4c-0.2,0.5-0.4,1.1-0.6,1.6L48.1,29.6z"/>
<path fill="#CEDD38" d="M55,38.8L64.5,26h-6.2c0-0.3,0-0.6,0-0.9c0-0.3,0.1-0.6,0.1-0.9c0-0.3,0.1-0.6,0.2-0.8
	c0.1-0.3,0.2-0.6,0.3-0.9h12.6l0.1,0.4L62,35.6h7.2c0,0.3,0,0.6,0,0.9c0,0.3-0.1,0.6-0.1,0.9c0,0.3-0.1,0.6-0.2,0.8
	c-0.1,0.3-0.2,0.6-0.3,0.9H55.1L55,38.8z"/>
<g>
	<g>
		<g>
			<g>
				<g>
					<path fill="#CEDD38" stroke="#007A9E" stroke-width="0.5" stroke-miterlimit="10" d="M33.1,50.7c-5.9-0.1-11.6-2-17.5-5.6
						c0,0-0.1,0-0.1-0.1c0-0.7,0-1,0-1.7c0.2,0.1,0.2,0.1,0.4,0.2c5.8,3.5,11.4,5.4,17.2,5.5c7.2,0.1,13.8-2.7,20.1-5.4
						c6.4-2.8,13.1-5.6,20.4-5.5c5.9,0.1,11.6,2,17.5,5.5c0,0,0.1,0,0.1,0.1c0,0.7,0,1,0,1.7c-0.2-0.1-0.2-0.1-0.4-0.2
						c-5.8-3.5-11.4-5.4-17.2-5.5c-7.2-0.1-13.8,2.7-20.1,5.4C47.1,48,40.4,50.8,33.1,50.7L33.1,50.7z"/>
				</g>
			</g>
		</g>
	</g>
</g>
<path fill="#CEDD38" stroke="#007A9E" stroke-width="0.5" stroke-miterlimit="10" d="M33.9,0.8c-2.2-0.8-4.6,0.3-5.4,2.4
	c-0.5,1.4-0.2,3,0.6,4.1L18.9,37.2L8.6,9.7c0.5-1.3,0.3-2.9-0.6-4.1C6.5,3.8,3.9,3.5,2,4.9C0.2,6.4-0.1,9,1.4,10.9
	c1,1.2,2.4,1.7,3.8,1.5l9.3,25.9c-5.6,1.3-9.8,4.8-9.8,8.7l29.2,0c0-4.2-4.4-8-10.7-9l10-29.2c1.4-0.3,2.6-1.2,3.2-2.6
	C37.2,4.1,36.1,1.6,33.9,0.8z"/>
<path fill="#CEDD38" stroke="#007A9E" stroke-width="0.5" stroke-miterlimit="10" d="M92.1,45.6l-1.5-0.2c-0.1,0-0.2-0.1-0.2-0.3
	l0.2-1.5c0-0.1,0.1-0.2,0.3-0.2l1.5,0.2c0.1,0,0.2,0.1,0.2,0.3l-0.2,1.5C92.3,45.5,92.2,45.6,92.1,45.6z"/>
<path fill="#CEDD38" stroke="#007A9E" stroke-width="0.5" stroke-miterlimit="10" d="M103,36c-0.6,1-1.4,1.8-2.4,2.5
	c-1,0.7-2.1,1-3.4,1c-1.4,0-2.5-0.5-3.2-1.4c-0.7-0.9-1.1-2.1-1.1-3.6c0-1.6,0.2-3.2,0.7-4.7c0.5-1.5,1.2-2.8,2.2-4
	c1-1.2,2.1-2.1,3.6-2.8c1.4-0.7,3.1-1,5-1c1.9,0,3.6,0.2,5.2,0.7l-2.8,15.9c-0.3,1.7-0.8,3.1-1.6,4.2c-0.8,1.1-1.6,1.9-2.7,2.5
	c-1,0.6-2.1,1-3.2,1.2C98.2,46.9,97.1,47,96,47c-1.1,0-1.9-0.1-2.7-0.2c-0.7-0.1-1.3-0.3-1.7-0.4c0-0.4,0-0.7,0.1-1
	c0-0.3,0.1-0.6,0.1-0.9c0.1-0.3,0.1-0.6,0.3-0.8c0.1-0.3,0.3-0.6,0.5-0.9c0.3,0.1,0.8,0.2,1.4,0.3c0.6,0.1,1.2,0.1,1.9,0.1
	c0.6,0,1.2,0,1.9-0.1c0.7-0.1,1.3-0.3,1.9-0.7c0.6-0.3,1.2-0.9,1.7-1.5c0.5-0.7,0.9-1.6,1.2-2.8L103,36z M104.5,25.9
	c-0.2,0-0.4-0.1-0.6-0.1c-0.2,0-0.4,0-0.5,0c-1,0-1.9,0.3-2.6,0.8c-0.7,0.5-1.3,1.2-1.8,1.9s-0.8,1.6-1,2.5
	c-0.2,0.9-0.3,1.7-0.3,2.4c0,0.8,0.1,1.4,0.4,1.8c0.3,0.4,0.7,0.6,1.2,0.6c1,0,2-0.6,2.9-1.9c0.9-1.3,1.5-3,1.9-5.3L104.5,25.9z"/>
</svg>
